<svg id="Layer_1" data-name="Layer 1" xmlns="http://www.w3.org/2000/svg" viewBox="0 0 3000 3000"><defs><style>.cls-1{fill:#f58ebb;}</style></defs><path class="cls-1" d="M1922.45,664.84a646.1,646.1,0,0,1,70.28-63,626.25,626.25,0,0,1,79-52.4A485.38,485.38,0,0,1,2159.28,511a374.63,374.63,0,0,1,95.15-18,337.85,337.85,0,0,1,49.05,1.1,320,320,0,0,1,48.55,8.68,330.91,330.91,0,0,1,90.57,38.94,389.94,389.94,0,0,1,40.21,28.52,438.05,438.05,0,0,1,36.3,33.1,516.2,516.2,0,0,1,61,76,506.88,506.88,0,0,1,46.44,86.34,570.45,570.45,0,0,1,29.85,93.19,682.79,682.79,0,0,1,14.8,96.25,846.16,846.16,0,0,1,2.35,96.8c-1,32.19-3.65,64.23-7.56,96-1.05,7.94-2.05,15.89-3.17,23.81l-3.64,23.72-4.12,23.61c-.66,3.94-1.48,7.84-2.23,11.76l-2.29,11.75q-9.43,46.94-21.71,93.06t-26.77,91.45c-19.4,60.41-41.34,119.86-65.39,178.3q-18,43.86-37.38,87t-39.89,85.79q-41.07,85.17-86,168.15c-29.78,55.37-60.73,110-92,164.25-15.65,27.08-31.25,54-47.06,81.09s-31.8,54.12-48.29,81.09-33.44,53.87-51.37,80.51-36.84,53-57.8,78.8c-10.53,12.86-21.54,25.57-33.46,37.94a412.13,412.13,0,0,1-38.86,35.79,265.51,265.51,0,0,1-47.77,30.89,197.78,197.78,0,0,1-28.53,11.49,171.7,171.7,0,0,1-31.59,6.75,161.63,161.63,0,0,1-33.14.41,163.53,163.53,0,0,1-32.48-6.31,174.7,174.7,0,0,1-29.89-12.28,196.84,196.84,0,0,1-26.13-16.41,260.3,260.3,0,0,1-41.74-39.23,395.71,395.71,0,0,1-31.87-42.71c-18.86-29-34.07-58.72-47.77-88.49s-25.65-59.7-36.92-89.59c-22.42-59.79-41.81-119.58-61.61-178.24-9.92-29.3-19.89-58.33-30.53-86.57-5.31-14.12-10.77-28-16.51-41.59s-11.74-26.73-18.14-39.15a271.12,271.12,0,0,0-20.24-33.9,119.64,119.64,0,0,0-10.48-12.82c-.85-.86-1.68-1.75-2.5-2.48s-1.6-1.46-2.38-2.17a45.12,45.12,0,0,0-4.15-3.13,26.35,26.35,0,0,0-3-1.63,15,15,0,0,0-1.59-.53,3.17,3.17,0,0,0-1-.11c-.18,0-.34,0-.52,0a.55.55,0,0,1-.28.06c-.1,0-.22.08-.34.08a16.74,16.74,0,0,0-5.55,2.85,10.3,10.3,0,0,0-1,.77c-.36.28-.72.52-1.1.84-.76.67-1.54,1.24-2.35,2-1.62,1.41-3.32,3.22-5.06,5.06a135.35,135.35,0,0,0-10.56,13.49c-3.51,5.06-7,10.58-10.28,16.4-6.67,11.64-12.92,24.39-18.82,37.57-11.78,26.47-22.32,54.69-32.29,83.39s-19.37,58.07-28.73,87.62l-28.09,89.28c-9.5,29.91-19.3,59.93-29.75,90s-21.61,60.06-34.14,90-26.45,59.75-43.42,89.1a441,441,0,0,1-28.54,43.4,279.52,279.52,0,0,1-37.21,40.89,202.59,202.59,0,0,1-23.58,18.07,163.53,163.53,0,0,1-27.76,14.63,150.64,150.64,0,0,1-31.38,9,141,141,0,0,1-33.13,1.74,147.49,147.49,0,0,1-32.08-5.74A171.94,171.94,0,0,1,950,2577.16a215.53,215.53,0,0,1-25-14.87c-7.75-5.37-15-11-21.87-16.89s-13.32-11.91-19.52-18.06-12-12.43-17.72-18.78c-11.33-12.71-21.76-25.73-31.66-38.89-19.78-26.34-37.49-53.26-54.41-80.28-33.71-54.07-64.13-108.74-95.54-161.82q-11.75-19.91-23.74-39.42l-24.79-39.74q-24.87-40.68-47.79-82.43a2130.15,2130.15,0,0,1-151.63-348l-3.73-11.26c-1.26-3.74-2.5-7.5-3.67-11.27l-7.18-22.61-6.88-22.69c-1.16-3.78-2.25-7.58-3.35-11.37l-3.28-11.4q-13-45.6-24-91.72t-19.69-92.75c-5.83-31.07-11-62.27-15.16-93.61a1643.09,1643.09,0,0,1-14.89-189.13q-.81-47.49,1.69-95T345,970.43c4.34-31.46,10.07-62.78,17.54-93.73a768.15,768.15,0,0,1,27.88-91.48,639.63,639.63,0,0,1,40.31-87.07c3.78-7.07,8.08-13.86,12.2-20.74,2-3.47,4.28-6.79,6.49-10.15l6.62-10.06c2.29-3.3,4.66-6.56,7-9.83l3.51-4.91L468.3,640l1.85-2.38,7.41-9.53c1.24-1.58,2.44-3.2,3.73-4.74l3.9-4.61,7.8-9.21c2.59-3,5.2-5.91,7.86-8.88q8-8.86,16.28-17.53t17-16.93c5.83-5.49,11.69-11,17.75-16.19a458.67,458.67,0,0,1,78.53-55.88C658.62,478.38,689,466,720.84,458.65a299.51,299.51,0,0,1,48.45-7.19,273.66,273.66,0,0,1,49.21,1.33c4.08.58,8.18,1.06,12.23,1.83,2,.37,4.07.67,6.08,1.1l6,1.28c8,1.84,16,3.92,23.75,6.48l2.93.93,2.89,1,5.77,2c3.79,1.47,7.63,2.86,11.36,4.44,7.52,3.05,14.85,6.4,22.1,9.86,14.46,7,28.42,14.58,42.12,22.35s27.15,15.7,40.6,23.46c26.86,15.61,53.75,30.36,81.53,43.67q20.79,10,42,19.21t42.77,17.47a1207.62,1207.62,0,0,0,176.77,53c30.06,6.45,60.33,11.82,90.74,15.67a879.65,879.65,0,0,0,91.38,7,657.56,657.56,0,0,0,90.77-3.82c29.89-3.44,59.35-9.28,87.32-18.39a316.75,316.75,0,0,0,40.52-16.3,236.73,236.73,0,0,0,36.63-22,202.26,202.26,0,0,0,30.94-27.95,263.5,263.5,0,0,0,25.5-34.25,266.91,266.91,0,0,0,20-37.65A160,160,0,0,0,1858,504.4a76.33,76.33,0,0,0,3-17c.06-1.22,0-2.31,0-3.34a22.22,22.22,0,0,0-.32-2.6,11.75,11.75,0,0,0-.45-1.62c-.16-.34-.28-.48-.32-.49s0,.16,0,.29.07.07,0,.07a.72.72,0,0,0-.2-.09,18.75,18.75,0,0,0-3.3-1.38,37,37,0,0,0-6.56-1.47,69.76,69.76,0,0,0-8.38-.73,132.86,132.86,0,0,0-19.21.84A269.87,269.87,0,0,0,1781,485c-13.91,3.81-27.82,8.41-41.55,13.69a592.75,592.75,0,0,0-80.19,38q-19.36,11-37.92,23.25c-12.37,8.14-24.39,16.76-36.08,25.74-5.82,4.53-11.6,9.09-17.22,13.82-2.85,2.32-5.61,4.74-8.41,7.11s-5.53,4.81-8.22,7.29c-10.85,9.8-21.35,20-31,30.55A313.59,313.59,0,0,0,1471.94,713c-6.64,12.54-12.69,25.72-18.41,39.33-1.41,3.44-2.88,6.79-4.25,10.28L1445.13,773c-2.69,7-5.41,14.06-8,21.23s-5.21,14.36-7.8,21.55l-7.68,21.81-15.23,44q-15.23,44.17-30.88,88.56t-32.14,88.41q-16.47,44.07-33.61,87.89c-11.51,29.29-23.35,58.59-35.78,87.66s-25.41,58-39.06,86.69-28,57.16-43.38,85.3l-5.77,10.54-5.93,10.49c-3.91,7-8,14-12.1,20.9-2,3.48-4.14,6.93-6.24,10.38l-6.32,10.35-6.51,10.28-3.27,5.14-3.37,5.09c-8.87,13.63-18.32,27-28.14,40.28s-20.26,26.24-31.39,38.9a449,449,0,0,1-35.93,36.65l-2.41,2.19-2.49,2.15-5,4.28c-1.64,1.45-3.42,2.81-5.13,4.2l-5.21,4.15-5.37,4-2.7,2-2.78,1.94-5.57,3.86-5.76,3.71-2.89,1.85-3,1.76-3,1.76c-1,.58-1.91,1.15-3.06,1.75-2.19,1.18-4.38,2.4-6.6,3.52s-4.47,2.19-6.72,3.22a193.13,193.13,0,0,1-27.54,10.07,228.28,228.28,0,0,1-55.65,8.27,292.62,292.62,0,0,1-53.8-3.59A348.91,348.91,0,0,1,790.81,1654a365.11,365.11,0,0,1-48.42-19.22,343.71,343.71,0,0,1-45.54-26.26A257.07,257.07,0,0,1,655,1573.1a176.2,176.2,0,0,1-18.53-23.41,122.67,122.67,0,0,1-14.53-30.38c-.47-1.43-.88-2.93-1.26-4.47s-.85-3.18-1-4.43c-.49-2.66-1-5.34-1.42-8-.25-1.34-.39-2.66-.51-4l-.39-4-.35-4c-.09-1.32-.08-2.61-.13-3.91,0-2.6-.11-5.22-.09-7.8l.39-7.64c.09-2.57.43-5,.72-7.51l.45-3.72c.15-1.25.31-2.49.55-3.68a204.38,204.38,0,0,1,17.21-54.09c15.78-33.23,37.9-61.49,63.66-85.47a301.79,301.79,0,0,1,88.35-57.17A272.55,272.55,0,0,1,839,1243.76c8.18-1.64,16.73-3.15,25.6-4.25a234,234,0,0,1,27.17-1.84,255.73,255.73,0,0,1,27.13,1.39c4.39.56,8.83,1,13.12,1.77,2.15.35,4.33.66,6.45,1.06l6.36,1.21c2.13.38,4.2.85,6.28,1.3l6.22,1.38c4.08,1,8.18,2,12.22,3.06s8,2.16,12,3.33,7.91,2.3,11.79,3.53c15.62,4.84,30.8,10.15,45.79,15.68,7.53,2.73,14.91,5.61,22.35,8.44s14.78,5.78,22.09,8.77q44,17.76,87,36.73t85.72,38.37q85.47,38.8,169.66,80.75,42,20.93,83.67,42.35c27.78,14.2,55.43,28.48,83.13,42.28s55.45,27.11,83.62,38.83c14.07,5.94,28.28,11.29,42.62,16.22l5.39,1.83c1.79.61,3.59,1.22,5.4,1.76l10.85,3.4c7.27,2.08,14.54,4.23,21.9,6,14.68,3.73,29.51,7,44.52,9.47s30.13,4.67,45.37,6.09a736.84,736.84,0,0,0,91.88,3.51c61.48-1.47,122.93-10.75,183-26.29h0a4.54,4.54,0,0,1,2.6,8.7,771.33,771.33,0,0,1-184.43,39,734.47,734.47,0,0,1-95,1.87c-15.87-.58-31.74-2-47.6-3.79s-31.69-4.37-47.41-7.53c-7.88-1.51-15.67-3.38-23.49-5.2l-11.64-3c-2-.49-3.88-1-5.8-1.58l-5.78-1.65c-15.37-4.46-30.62-9.37-45.57-14.83s-29.78-11.18-44.36-17.26c-3.67-1.49-7.3-3-10.93-4.57L1597,1575.5c-7.21-3.14-14.45-6.27-21.61-9.47-28.72-12.74-57.08-25.85-85.38-38.88s-56.56-26-84.89-38.74-56.69-25.32-85.19-37.59l-10.68-4.61-10.71-4.57-21.4-9.11c-14.3-6-28.59-12-43-18-28.72-11.9-57.44-23.73-86.23-35.25s-57.57-22.82-86.41-33.45c-7.2-2.7-14.42-5.23-21.62-7.84s-14.41-5.1-21.61-7.48c-14.4-4.87-28.79-9.45-43.07-13.44a416.82,416.82,0,0,0-42.26-9.82l-5.15-.84c-1.72-.29-3.4-.47-5.1-.7-3.41-.52-6.73-.75-10.08-1.11a186.92,186.92,0,0,0-19.58-.51c-12.84.41-25.67,2.55-39.83,5.77a206.2,206.2,0,0,0-38,12.73,237,237,0,0,0-93.39,76,195.81,195.81,0,0,0-19.74,34,132,132,0,0,0-10.56,34.89,17.4,17.4,0,0,0-.27,2.11l-.2,2.08a34.72,34.72,0,0,0-.32,4.13c0,1.34-.09,2.69-.15,4l.15,3.88c0,.65,0,1.31.07,1.93l.23,1.85.21,1.85a10.41,10.41,0,0,0,.26,1.8c.25,1.16.48,2.32.68,3.49a10.09,10.09,0,0,0,.33,1.25,7.88,7.88,0,0,0,.36,1.15,49.51,49.51,0,0,0,6,11.47,106.21,106.21,0,0,0,10.73,13,182.77,182.77,0,0,0,29.84,24.31,269.18,269.18,0,0,0,35.72,19.85,299.1,299.1,0,0,0,38.64,14.72,272.74,272.74,0,0,0,39.88,9,215,215,0,0,0,39.4,2.17,153,153,0,0,0,36.58-5.75,115.66,115.66,0,0,0,16.28-6.14c1.28-.61,2.53-1.26,3.8-1.88s2.45-1.35,3.69-2c.59-.3,1.33-.8,2-1.19l2-1.23,2.05-1.23,2-1.33,4-2.66,4-2.84,2-1.42,2-1.51,4-3,3.9-3.19c1.3-1.08,2.62-2.09,3.89-3.24l3.84-3.36c.64-.57,1.29-1.11,1.92-1.69l1.89-1.76a374.92,374.92,0,0,0,29.24-30.36q14.05-16.23,27.06-34.07c8.64-11.87,17.09-24,25.12-36.57l3-4.67,3-4.75,6-9.5,5.81-9.64c1.94-3.21,3.89-6.41,5.76-9.69,3.77-6.52,7.59-13,11.23-19.62l5.53-9.89,5.4-10c14.37-26.68,28-54,41-81.58s25.61-55.62,37.76-83.83,23.78-56.7,35.27-85.36,22.77-57.63,33.93-86.53,22.08-57.9,32.89-87,21.49-58.22,32.21-87.51l16.26-44c2.73-7.36,5.54-14.76,8.33-22.13s5.68-14.79,8.66-22.22,6-14.87,9-22.31l4.77-11.19c1.57-3.73,3.31-7.48,5-11.21,6.76-14.95,14.11-29.95,22.47-44.75a382.38,382.38,0,0,1,28.13-43.12,399.49,399.49,0,0,1,33.54-38.83c11.84-12.09,24.07-23.23,36.7-33.93s25.66-20.78,39-30.39a682.2,682.2,0,0,1,83.72-51.26,653.37,653.37,0,0,1,90.21-38.7c15.59-5.3,31.51-9.91,47.83-13.7a328,328,0,0,1,50.74-7.91,189.59,189.59,0,0,1,27.5,0,126.06,126.06,0,0,1,14.82,2,91.05,91.05,0,0,1,16,4.53,67.76,67.76,0,0,1,17.25,9.58,45.57,45.57,0,0,1,4.26,3.66,43.45,43.45,0,0,1,4,4.27,50.3,50.3,0,0,1,6.67,9.88,59.14,59.14,0,0,1,4.14,10.3,69,69,0,0,1,2,9.79,79.88,79.88,0,0,1,.62,9c0,2.87-.08,5.68-.33,8.34a111.76,111.76,0,0,1-2.37,15.1c-1.06,4.76-2.35,9.27-3.78,13.64a213.05,213.05,0,0,1-9.93,24.72,320.39,320.39,0,0,1-25.52,43.94c-4.75,6.92-9.73,13.66-15,20.24s-10.81,13-16.85,19.25a249.36,249.36,0,0,1-39.6,33.17,286,286,0,0,1-44.4,24.48,360.19,360.19,0,0,1-46.81,16.94c-31.67,9.14-63.9,14.27-96,17-16.07,1.33-32.13,2-48.15,2.18s-32-.2-47.92-1a947.84,947.84,0,0,1-94.8-9.88c-31.35-4.76-62.39-11-93.14-18.32A1298.74,1298.74,0,0,1,1150,635q-22-8.81-43.59-18.41t-42.85-20.12c-14.16-7-28.16-14.28-42-21.85s-27.47-15.44-41-23.33-26.89-15.84-40.29-23.48c-6.69-3.84-13.4-7.55-20.13-11.19s-13.49-7.1-20.3-10.37-13.66-6.41-20.59-9.2c-3.45-1.47-7-2.72-10.42-4.06l-5.26-1.84-2.63-.91-2.65-.84c-7-2.31-14.18-4.15-21.35-5.79l-5.4-1.14c-1.79-.38-3.61-.64-5.42-1-3.61-.69-7.26-1.09-10.9-1.61a239.94,239.94,0,0,0-44.14-1,271,271,0,0,0-43.92,6.71c-28.92,6.86-56.77,18.38-82.86,33.21a399,399,0,0,0-37.84,24.55c-3.08,2.18-6,4.54-9.06,6.79s-5.93,4.68-8.89,7c-5.84,4.79-11.62,9.67-17.25,14.74s-11.15,10.26-16.6,15.53-10.72,10.73-15.93,16.26-10.3,11.17-15.32,16.93L519.63,625c-1.24,1.45-2.55,2.94-3.74,4.39l-7.17,8.75-3.59,4.36c-1.19,1.46-2.28,3-3.43,4.5l-6.81,9-1.7,2.25-1.62,2.33-3.22,4.66c-2.13,3.11-4.31,6.19-6.42,9.33l-6.06,9.57c-2,3.2-4.09,6.35-5.93,9.66-3.77,6.56-7.72,13-11.16,19.75a593.19,593.19,0,0,0-36.59,83.22c-1.31,3.57-2.43,7.21-3.65,10.81L415,818.43c-2.15,7.3-4.41,14.57-6.48,21.89l-2.94,11c-1,3.69-2,7.34-2.86,11.06L400,873.55l-1.31,5.56c-.44,1.86-.79,3.73-1.19,5.6A893.4,893.4,0,0,0,383,975.15c-6.73,60.82-7.83,122.32-4.92,183.62s10.16,122.46,20.35,183.07c5.1,30.31,11.13,60.47,17.82,90.48s14.12,59.86,22.19,89.52,17,59.12,26.38,88.38l3.56,11c1.18,3.65,2.36,7.31,3.61,10.94l7.4,21.83,7.69,21.73c1.27,3.63,2.59,7.24,3.93,10.84l4,10.81q16.08,43.2,33.82,85.73t37.43,84.14c13,27.8,26.75,55.22,40.93,82.4s29,54,44.38,80.46,31.35,52.56,47.89,78.26L725,2147.39q12.94,20.06,25.36,40.18c16.57,26.82,32.65,53.64,48.75,80.19s32.16,52.84,48.69,78.44,33.52,50.53,51.51,73.81q6.75,8.73,13.7,17.07c4.65,5.52,9.32,11,14.12,16.18s9.62,10.28,14.56,15,9.92,9.35,15,13.5,10.16,8,15.27,11.48A131.32,131.32,0,0,0,987.2,2502a88.22,88.22,0,0,0,14.74,5.66,63.69,63.69,0,0,0,13.89,2.29,60.43,60.43,0,0,0,26.84-5c8.91-3.75,17.95-10,26.74-18a195.13,195.13,0,0,0,25.13-28.61,354,354,0,0,0,22.29-35c13.93-24.82,26.11-51.78,37.3-79.48s21.34-56.34,31-85.31,18.78-58.39,27.79-88l26.9-89.49c9.07-30,18.38-60.17,28.48-90.46s21-60.71,34.27-91.35c6.68-15.33,14-30.71,22.63-46.22,4.34-7.75,9-15.53,14.33-23.34a229.28,229.28,0,0,1,18.06-23.44c3.54-3.9,7.17-7.77,11.34-11.59,2-1.92,4.25-3.8,6.45-5.67,1.11-.93,2.32-1.86,3.49-2.77s2.36-1.83,3.64-2.72a118.22,118.22,0,0,1,16.51-10,105.22,105.22,0,0,1,19.71-7.55c1.78-.45,3.52-1,5.34-1.3s3.64-.71,5.46-1a103.91,103.91,0,0,1,11.11-1.09,98.24,98.24,0,0,1,22.26,1.48,106.93,106.93,0,0,1,20.79,6,118.26,118.26,0,0,1,17.75,9.16,137.22,137.22,0,0,1,14.69,10.69c2.16,1.85,4.37,3.72,6.34,5.61s4,3.79,5.84,5.7a214,214,0,0,1,19.38,23.12c5.66,7.71,10.66,15.42,15.27,23.1s8.85,15.33,12.83,23c8,15.26,14.92,30.43,21.45,45.55s12.52,30.19,18.27,45.22c11.45,30.06,21.86,60,32,89.7,20.26,59.41,39.36,118.27,60.7,175.27,10.65,28.47,21.88,56.45,34.11,83.39,6.12,13.47,12.51,26.67,19.26,39.43s13.82,25.1,21.31,36.77a304.81,304.81,0,0,0,23.79,32.35,165,165,0,0,0,26,25,90,90,0,0,0,26.58,14.19,66.68,66.68,0,0,0,26.84,2.67c9.12-.93,18.82-3.84,28.94-8.72a173.82,173.82,0,0,0,30.74-19.6,318.44,318.44,0,0,0,30.13-27.24c9.83-10,19.39-20.71,28.75-31.86,18.67-22.39,36.43-46.5,53.66-71.33s33.88-50.48,50.29-76.47c32.77-52,64.69-105.42,96.77-158.8s63.37-106.6,93.77-160.44,59.73-108.18,87.72-163.13,54.54-110.55,79.31-166.84q18.6-42.21,35.61-85t32.26-86.14a1688.79,1688.79,0,0,0,51.67-175.72c13.83-59.28,23.61-119.34,27.53-179.53s1.73-120.52-9.49-179a523.21,523.21,0,0,0-23.92-85.7,463.65,463.65,0,0,0-38.9-79.73l-2.89-4.75c-1-1.59-1.89-3.16-3-4.77-2.07-3.22-4.13-6.34-6.21-9.47q-6.26-9.35-12.85-18.34t-13.61-17.67q-7-8.64-14.46-16.92a396.76,396.76,0,0,0-31.48-31.26,350.26,350.26,0,0,0-34.86-27.14,297.18,297.18,0,0,0-79-38.32,287.76,287.76,0,0,0-43-9.86,307.08,307.08,0,0,0-44.3-3.13c-7.43.11-14.88.28-22.32.9-3.73.22-7.45.65-11.17,1-1.86.18-3.72.44-5.58.65s-3.72.43-5.57.73a373.48,373.48,0,0,0-44.25,9,475.25,475.25,0,0,0-85.32,32.18,629,629,0,0,0-79.56,46.5q-19.08,13.08-37.32,27.42c-12.14,9.56-24,19.51-35.38,29.95l0,0a4.54,4.54,0,0,1-6.35-6.48Z"/><path class="cls-1" d="M2399.88,1351.85l-1.61,7.53-.09.43-.12.25c-.74,1.66-1.46,2.92-1.8,3.92l-.11.36-.16.57-.32,1.14c-.21.77-.41,1.54-.65,2.29-.88,3.05-1.92,6-3,9s-2.31,5.89-3.6,8.77-2.67,5.72-4.13,8.51a235.79,235.79,0,0,1-20.15,31.71c-14.86,20.16-32.5,38.16-51.28,54.75-4.69,4.16-9.5,8.18-14.33,12.16l-7.3,5.89c-2.45,1.95-4.86,3.94-7.36,5.82-5,3.82-9.87,7.72-14.94,11.4-2.52,1.86-5,3.76-7.56,5.58l-7.67,5.45-3.85,2.72-3.89,2.64-7.79,5.3-7.89,5.14c-2.64,1.72-5.27,3.45-7.94,5.09q-15.93,10.1-32.41,19.31c-2.73,1.58-5.49,3.07-8.26,4.56l-8.31,4.47L2165,1581c-2.78,1.47-5.6,2.88-8.42,4.25q-16.87,8.43-34.13,16c-5.74,2.55-11.5,5-17.28,7.46l-8.7,3.59-2.17.89-1.09.45-.54.23-.47.18-.72.25c-.46.17-1.08.35-1.61.5s-1.26.32-1.9.46a24.87,24.87,0,0,1-4.8.48,23.43,23.43,0,0,1-5.71-.69,24.24,24.24,0,0,1-5.25-2,27.7,27.7,0,0,1-6.37-4.56l-1.67-1.52-3.26-2.87-7-6-3.66-3.23-3.51-3.18-7-6.32c-18.52-17-36.66-34.56-54-53.08-4.37-4.59-8.61-9.31-12.9-14-2.13-2.35-4.21-4.75-6.32-7.13s-4.21-4.77-6.26-7.2c-8.35-9.62-16.35-19.58-24.2-29.67-3.85-5.11-7.78-10.16-11.5-15.38-1.87-2.6-3.79-5.17-5.63-7.8l-5.5-7.9c-1.86-2.61-3.6-5.32-5.39-8s-3.58-5.31-5.33-8.08c-3.54-5.45-6.94-11.05-10.3-16.71-13.26-22.72-24.79-47.36-32.55-73.78-.49-1.65-.93-3.32-1.39-5s-.93-3.31-1.33-5l-1.23-5c-.4-1.71-.75-3.49-1.12-5.23a208.19,208.19,0,0,1-3.31-21.4,185.94,185.94,0,0,1,1-44.47,174.38,174.38,0,0,1,12.68-43.61,184.63,184.63,0,0,1,10.5-20.07l3-4.8,3-4.48c1-1.5,2-3,3.08-4.44l1.56-2.21,1.63-2.19a193.55,193.55,0,0,1,30.56-32.69,164.71,164.71,0,0,1,39.84-24.86,160.92,160.92,0,0,1,45.91-12.29,172.44,172.44,0,0,1,23.3-1.08,188.69,188.69,0,0,1,22.72,1.76c1.87.24,3.69.57,5.54.86.92.15,1.82.27,2.77.47l2.85.57c3.78.8,7.57,1.49,11.35,2.59l5.66,1.56c.94.25,1.88.56,2.82.89l2.81,1,5.61,2c1.85.72,3.69,1.52,5.53,2.29a157.77,157.77,0,0,1,41,25.21,168.81,168.81,0,0,1,31,35.45l3.13,4.83,2.85,4.91c.93,1.65,1.91,3.28,2.78,4.94l2.52,5c.82,1.67,1.71,3.33,2.45,5l2.22,5,3.35,7.8-56.62-9.77,4.44-3.89,1.16-1,1.31-1.1,2.64-2.19c3.45-3,7.23-5.66,10.92-8.39a183.55,183.55,0,0,1,24-14.28,168.52,168.52,0,0,1,26.41-10.09c4.59-1.16,9.14-2.37,13.78-3.14s9.28-1.38,13.9-1.91a164.35,164.35,0,0,1,27.54.1,175.84,175.84,0,0,1,26.38,4.57,154.67,154.67,0,0,1,48.27,21.58,157.33,157.33,0,0,1,36.73,35.3,196.51,196.51,0,0,1,13.46,20.63,165.7,165.7,0,0,1,20.77,68.75c.19,2,.24,3.94.34,5.9l.13,3c0,1,0,2,0,3,.06,3.93-.11,7.84-.23,11.75s-.57,7.78-.91,11.6Zm-7.28-.91,0-1.2,0-1.44.11-2.87.23-5.69c.15-3.78.18-7.53.11-11.23l-.25-5.56c-.06-1.85-.31-3.69-.47-5.53-.09-.92-.16-1.84-.27-2.76l-.39-2.74c-.24-1.83-.5-3.65-.88-5.46a123.42,123.42,0,0,0-27.43-58.21,136,136,0,0,0-15-15.06,115,115,0,0,0-34.91-20.78,115,115,0,0,0-38.18-6.74c-3.24,0-6.45,0-9.67.32-3.22.1-6.37.57-9.49.89-1.55.24-3.09.54-4.62.79-.76.14-1.53.23-2.28.41l-2.25.52c-1.49.36-3,.59-4.45,1.06l-4.35,1.23a122.33,122.33,0,0,0-16.46,6.6l-3.88,2-1,.5-.94.57-1.89,1.13-1.88,1.11c-.63.37-1.23.81-1.84,1.21-1.22.83-2.45,1.58-3.65,2.44a155.57,155.57,0,0,0-13.85,11.2l-3.26,3.16c-1.12,1-2.17,2.14-3.23,3.24l-1.59,1.65-.8.82-.92,1-3.79,4-32.67,34.66-24-44.44-2.79-5.17-.64-1.2-.46-.83-.91-1.64-1.77-3.31c-.58-1.11-1.26-2.12-1.88-3.18l-1.88-3.15c-.65-1-1.34-2-2-3l-2-3-2.12-2.81a106.63,106.63,0,0,0-18.53-19.37,94.82,94.82,0,0,0-22.19-13c-1-.41-2-.86-3-1.26s-2.1-.72-3.15-1.08l-1.56-.56a13.6,13.6,0,0,0-1.6-.52c-1.09-.3-2.18-.59-3.26-.91-2.13-.72-4.44-1.13-6.68-1.67l-1.69-.39c-.56-.14-1.19-.22-1.78-.34-1.2-.2-2.41-.46-3.61-.63a129.06,129.06,0,0,0-27.89-1.64,96.63,96.63,0,0,0-25.86,5.1,92.93,92.93,0,0,0-23.94,12.41,125.7,125.7,0,0,0-21.66,19.68l-1.27,1.42-1.24,1.48c-.82,1-1.68,2-2.47,3l-2.41,3.06-2.14,3a119.72,119.72,0,0,0-7.71,12.17,106.42,106.42,0,0,0-9.89,26.75,117,117,0,0,0-2.36,29.39,141.72,141.72,0,0,0,1.59,15.31c.21,1.29.38,2.56.62,3.88l.78,4c.24,1.34.55,2.67.85,4s.59,2.68.91,4c5.14,21.32,13.58,42.27,24.23,62.75,2.69,5.12,5.42,10.24,8.35,15.32,1.42,2.54,3,5.09,4.48,7.65s3,5.12,4.58,7.63l4.69,7.57c1.57,2.53,3.22,5,4.83,7.5,3.19,5,6.6,9.91,9.92,14.86,13.6,19.6,28,38.76,43.52,57.21s31.68,36.45,48.48,54l6.36,6.55,3.16,3.25,3.1,3.11,6.64,6.54,3.47,3.49,1.65,1.71a11.84,11.84,0,0,0-2.67-1.78,14.38,14.38,0,0,0-3.09-1.14,14.65,14.65,0,0,0-3.42-.39,11.47,11.47,0,0,0-2.5.26c-.27.05-.56.13-.77.19s-.41.14-.5.17l-.17.07.07,0,.55-.19,1.08-.36,2.16-.74,8.65-2.93c5.73-2,11.5-4,17.23-6,22.87-8.28,45.66-16.81,68-26.33s44.62-19.57,66.13-31.11l8.07-4.32c2.69-1.46,5.33-3,8-4.48,5.35-3,10.59-6.1,15.84-9.24,2.64-1.55,5.2-3.22,7.79-4.84l7.76-4.92q7.65-5,15.08-10.38c19.76-14.27,38.07-30.73,53.12-49.95,1.93-2.36,3.67-4.87,5.51-7.3s3.53-5,5.18-7.54a162.75,162.75,0,0,0,9.17-15.73,133.32,133.32,0,0,0,7.13-16.66c1-2.85,1.86-5.72,2.61-8.63.21-.73.37-1.46.55-2.19l.26-1.09.14-.56c.06-.26.12-.52.2-.76.59-2,1.39-3.4,1.84-4.59l-.21.68Z"/></svg>